<svg width="64" height="64" viewBox="0 0 64 64" fill="none" xmlns="http://www.w3.org/2000/svg">
<path d="M1.88625 5.89406H38.0109V4.00781H0V59.9931H46.0256V58.1068H1.88625V5.89406Z" fill="#283DCE"/>
<path d="M41.0154 4.00781V5.89406H62.1125V14.0261H4.94922V15.9124H62.1125V58.1068H49.0299V59.9931H63.9989V4.00781H41.0154Z" fill="#283DCE"/>
<path d="M6.95284 9.01685H4.94922V10.9032H6.95284V9.01685Z" fill="#283DCE"/>
<path d="M10.9608 9.01685H8.95703V10.9032H10.9608V9.01685Z" fill="#283DCE"/>
<path d="M59.0505 9.01685H57.0469V10.9032H59.0505V9.01685Z" fill="#283DCE"/>
<path d="M10.0195 21.9822V32.9437H20.9809V31.0573H11.9058V21.9822H10.0195Z" fill="#283DCE"/>
<path d="M10.0195 51.9781H20.9809V50.0917H11.9058V41.0166H10.0195V51.9781Z" fill="#283DCE"/>
<path d="M22.3155 20.313L16.9713 25.6571L15.6345 24.3202L14.3008 25.6541L16.9713 28.3247L23.6492 21.6467L22.3155 20.313Z" fill="#283DCE"/>
<path d="M15.6345 43.3559L14.3008 44.6896L16.9713 47.3603L23.6492 40.6824L22.3155 39.3486L16.9713 44.6926L15.6345 43.3559Z" fill="#283DCE"/>
<path d="M29.9958 22.0403H27.9922V23.9267H29.9958V22.0403Z" fill="#283DCE"/>
<path d="M34.0036 22.0403H32V23.9267H34.0036V22.0403Z" fill="#283DCE"/>
<path d="M38.0116 22.0403H36.0078V23.9267H38.0116V22.0403Z" fill="#283DCE"/>
<path d="M29.9958 41.0754H27.9922V42.9617H29.9958V41.0754Z" fill="#283DCE"/>
<path d="M34.0036 41.0754H32V42.9617H34.0036V41.0754Z" fill="#283DCE"/>
<path d="M38.0116 41.0754H36.0078V42.9617H38.0116V41.0754Z" fill="#283DCE"/>
<path d="M54.0396 26.0476H27.9922V27.934H54.0396V26.0476Z" fill="#283DCE"/>
<path d="M50.0318 30.0557H27.9922V31.942H50.0318V30.0557Z" fill="#283DCE"/>
<path d="M54.0396 45.0837H27.9922V46.97H54.0396V45.0837Z" fill="#283DCE"/>
<path d="M50.0318 49.0896H27.9922V50.976H50.0318V49.0896Z" fill="#283DCE"/>
</svg>
