<svg width="64" height="64" viewBox="0 0 64 64" fill="none" xmlns="http://www.w3.org/2000/svg">
<g clip-path="url(#clip0)">
<path d="M31 56H43V59C43 60.654 41.654 62 40 62H4C2.346 62 1 60.654 1 59V56H13V54H-1V59C-1 61.757 1.243 64 4 64H40C42.757 64 45 61.757 45 59V54H31V56Z" fill="#5569ED"/>
<path d="M15 57C15 58.654 16.346 60 18 60H26C27.654 60 29 58.654 29 57V54H15V57ZM17 56H27V57C27 57.552 26.552 58 26 58H18C17.448 58 17 57.552 17 57V56Z" fill="#5569ED"/>
<path d="M7 58H5V60H7V58Z" fill="#5569ED"/>
<path d="M11 58H9V60H11V58Z" fill="#5569ED"/>
<path d="M43 32H41V52H43V32Z" fill="#5569ED"/>
<path d="M3 27C3 25.346 4.346 24 6 24H31V22H6C3.243 22 1 24.243 1 27V52H3V27Z" fill="#5569ED"/>
<path d="M39 32H37V52H39V32Z" fill="#5569ED"/>
<path d="M31 26H7C5.897 26 5 26.897 5 28V52H7V28H31V26Z" fill="#5569ED"/>
<path d="M28.9787 37.0991C29.2787 37.6341 29.5177 38.2151 29.6907 38.8241L29.8347 39.3341L30.9987 39.7211V42.2801L29.8347 42.6681L29.6907 43.1781C29.5177 43.7861 29.2787 44.3671 28.9787 44.9031L28.7197 45.3661L29.2667 46.4621L27.4577 48.2711L26.3617 47.7241L25.8987 47.9831C25.3637 48.2831 24.7827 48.5221 24.1737 48.6951L23.6637 48.8391L23.2777 50.0001H20.7187L20.3307 48.8361L19.8207 48.6921C19.2127 48.5191 18.6317 48.2801 18.0957 47.9801L17.6327 47.7211L16.5367 48.2681L14.2187 45.9501L12.8047 47.3641L16.1427 50.7021L17.5957 49.9751C17.9717 50.1591 18.3617 50.3201 18.7617 50.4551L19.2777 52.0001H24.7187L25.2337 50.4561C25.6337 50.3201 26.0237 50.1591 26.3997 49.9761L27.8527 50.7031L31.7007 46.8551L30.9737 45.4021C31.1577 45.0261 31.3187 44.6361 31.4537 44.2361L32.9987 43.7211V38.2801L31.4547 37.7651C31.2597 37.1921 31.0147 36.6401 30.7237 36.1201L28.9787 37.0991Z" fill="#5569ED"/>
<path d="M26.401 32.024C26.026 31.84 25.636 31.68 25.235 31.544L24.721 30H19.28L18.765 31.544C18.364 31.68 17.974 31.841 17.599 32.024L16.146 31.297L12.298 35.145L13.025 36.598C12.841 36.974 12.68 37.364 12.545 37.764L11 38.279V43.72L12.544 44.235C12.739 44.808 12.984 45.36 13.275 45.88L15.019 44.901C14.719 44.366 14.48 43.785 14.307 43.176L14.163 42.666L13 42.279V39.72L14.164 39.332L14.308 38.822C14.481 38.214 14.72 37.633 15.02 37.097L15.279 36.634L14.732 35.538L16.541 33.729L17.638 34.277L18.1 34.017C18.634 33.717 19.214 33.478 19.824 33.306L20.334 33.162L20.721 32H23.28L23.669 33.165L24.179 33.309C24.788 33.481 25.368 33.72 25.903 34.02L26.365 34.28L27.462 33.732L29.78 36.05L31.194 34.636L27.856 31.298L26.401 32.024Z" fill="#5569ED"/>
<path d="M22 47C25.309 47 28 44.309 28 41C28 37.691 25.309 35 22 35C18.691 35 16 37.691 16 41C16 44.309 18.691 47 22 47ZM22 37C24.206 37 26 38.794 26 41C26 43.206 24.206 45 22 45C19.794 45 18 43.206 18 41C18 38.794 19.794 37 22 37Z" fill="#5569ED"/>
<path d="M61 10V2H33V10H36V12H33V20H36V22H33V30H61V22H58V20H61V12H58V10H61ZM59 24V28H35V24H59ZM38 22V20H56V22H38ZM59 14V18H35V14H59ZM38 12V10H56V12H38ZM35 8V4H59V8H35Z" fill="#5569ED"/>
<path d="M48 43C49.302 43 50.402 42.161 50.816 41H54C55.654 41 57 39.654 57 38V34H55V38C55 38.552 54.552 39 54 39H50.816C50.402 37.839 49.302 37 48 37C46.346 37 45 38.346 45 40C45 41.654 46.346 43 48 43ZM48 39C48.552 39 49 39.448 49 40C49 40.552 48.552 41 48 41C47.448 41 47 40.552 47 40C47 39.448 47.448 39 48 39Z" fill="#5569ED"/>
<path d="M59 44C59 45.654 57.654 47 56 47H50.816C50.402 45.839 49.302 45 48 45C46.346 45 45 46.346 45 48C45 49.654 46.346 51 48 51C49.302 51 50.402 50.161 50.816 49H56C58.757 49 61 46.757 61 44V34H59V44ZM48 49C47.448 49 47 48.552 47 48C47 47.448 47.448 47 48 47C48.552 47 49 47.448 49 48C49 48.552 48.552 49 48 49Z" fill="#5569ED"/>
<path d="M28 10C26.698 10 25.598 10.839 25.184 12H22C20.346 12 19 13.346 19 15V19H21V15C21 14.449 21.448 14 22 14H25.184C25.598 15.161 26.698 16 28 16C29.654 16 31 14.654 31 13C31 11.346 29.654 10 28 10ZM28 14C27.448 14 27 13.551 27 13C27 12.449 27.448 12 28 12C28.552 12 29 12.449 29 13C29 13.551 28.552 14 28 14Z" fill="#5569ED"/>
<path d="M17 9C17 7.346 18.346 6 20 6H25.184C25.598 7.161 26.698 8 28 8C29.654 8 31 6.654 31 5C31 3.346 29.654 2 28 2C26.698 2 25.598 2.839 25.184 4H20C17.243 4 15 6.243 15 9V19H17V9ZM28 4C28.552 4 29 4.449 29 5C29 5.551 28.552 6 28 6C27.448 6 27 5.551 27 5C27 4.449 27.448 4 28 4Z" fill="#5569ED"/>
</g>
<defs>
<clipPath id="clip0">
<rect width="64" height="64" fill="white"/>
</clipPath>
</defs>
</svg>
