<svg width="64" height="64" viewBox="0 0 64 64" fill="none" xmlns="http://www.w3.org/2000/svg">
<path d="M9 57H11V59H9V57Z" fill="#283DCE"/>
<path d="M13 57H15V59H13V57Z" fill="#283DCE"/>
<path d="M63 33V1H21V15H8C5.243 15 3 17.243 3 20V53H1V58C1 60.757 3.243 63 6 63H52C54.757 63 57 60.757 57 58V53H55V33H63ZM23 31V11H61V31H23ZM32.776 33C32.909 33.657 33 34.323 33 35C33 37.398 32.15 39.6 30.738 41.324L24 34.586V33H32.776ZM22 34.586L15.262 41.324C13.85 39.6 13 37.398 13 35C13 30.162 16.371 26.131 21 25.204V33H22V34.586ZM23 36.414L29.324 42.738C27.6 44.15 25.398 45 23 45C20.602 45 18.4 44.15 16.676 42.738L23 36.414ZM21 23.174C15.24 24.131 11 29.057 11 35C11 41.617 16.383 47 23 47C29.617 47 35 41.617 35 35C35 34.327 34.937 33.659 34.827 33H49V49H9V21H21V23.174ZM61 3V9H23V3H61ZM55 58C55 59.654 53.654 61 52 61H6C4.346 61 3 59.654 3 58V55H20.219L21.218 59H36.78L37.779 55H55V58ZM22.281 55H35.72L35.219 57H22.781L22.281 55ZM53 53H5V20C5 18.346 6.346 17 8 17H21V19H9C7.897 19 7 19.897 7 21V49C7 50.103 7.897 51 9 51H49C50.103 51 51 50.103 51 49V33H53V53Z" fill="#283DCE"/>
<path d="M25 5H27V7H25V5Z" fill="#283DCE"/>
<path d="M29 5H31V7H29V5Z" fill="#283DCE"/>
<path d="M33 5H35V7H33V5Z" fill="#283DCE"/>
<path d="M37 37H47V39H37V37Z" fill="#283DCE"/>
<path d="M37 41H47V43H37V41Z" fill="#283DCE"/>
<path d="M37 45H47V47H37V45Z" fill="#283DCE"/>
<path d="M28 17C28.552 17 29 17.449 29 18H31C31 16.698 30.161 15.598 29 15.184V13H27V15H25V18C25 19.654 26.346 21 28 21C28.552 21 29 21.449 29 22V23H28C27.448 23 27 22.551 27 22H25C25 23.302 25.839 24.402 27 24.816V27H29V25H31V22C31 20.346 29.654 19 28 19C27.448 19 27 18.551 27 18V17H28Z" fill="#283DCE"/>
<path d="M49 13H33V25H43V29H59V17H49V13ZM35 23V15H47V17H43V23H35ZM57 27H45V19H57V27Z" fill="#283DCE"/>
</svg>
