<svg width="64" height="64" viewBox="0 0 64 64" fill="none" xmlns="http://www.w3.org/2000/svg">
<path d="M63 33C63 26.311 58.282 20.71 52 19.332V6C52 3.243 49.757 1 47 1H21C18.243 1 16 3.243 16 6V17H10.219L9.616 19.416L7.482 18.135L2.134 23.48L3.415 25.616L1 26.219V33.781L3.416 34.384L2.134 36.52L7.481 41.866L9.615 40.585L10.219 43H16V58C16 60.757 18.243 63 21 63H47C49.757 63 52 60.757 52 58V46.668C58.282 45.29 63 39.689 63 33ZM61 33C61 34.949 60.523 36.785 59.695 38.414C59.14 36.887 57.863 35.686 56.213 35.273L52 34.219V33.98C53.246 33.041 54 31.564 54 30.001V28.001C54 26.604 53.409 25.26 52.378 24.314C51.348 23.371 49.952 22.897 48.556 23.02C46.001 23.241 44 25.521 44 28.207V30C44 31.563 44.754 33.04 46 33.979V34.218L41.787 35.272C40.137 35.685 38.86 36.886 38.305 38.413C37.477 36.785 37 34.949 37 33C37 26.383 42.383 21 49 21C55.617 21 61 26.383 61 33ZM46 19.332C45.312 19.483 44.646 19.691 44 19.939V17H24V31H35.16C35.065 31.655 35 32.319 35 33C35 39.689 39.718 45.29 46 46.668V49H22V15H46V19.332ZM35.59 29H26V19H42V20.894C38.946 22.667 36.62 25.553 35.59 29ZM21 3H47C48.654 3 50 4.346 50 6V9H18V6C18 4.346 19.346 3 21 3ZM16 34.572C15.369 34.85 14.688 35 14 35C11.243 35 9 32.757 9 30C9 27.243 11.243 25 14 25C14.688 25 15.369 25.15 16 25.428V34.572ZM11.781 41L11.294 39.051L11.091 38.516L9.949 38.052L7.791 39.348L4.653 36.209L5.949 34.05L5.449 32.83L3 32.219V27.781L5.446 27.17L5.949 25.95L4.653 23.791L7.791 20.652L9.949 21.948L11.169 21.452L11.781 19H16V23.305C15.351 23.11 14.679 23 14 23C10.14 23 7 26.141 7 30C7 33.859 10.14 37 14 37C14.679 37 15.351 36.89 16 36.695V41H11.781ZM47 61H21C19.346 61 18 59.654 18 58V55H50V58C50 59.654 48.654 61 47 61ZM50 53H18V11H50V19.051C49.668 19.027 49.338 19 49 19C48.662 19 48.332 19.027 48 19.051V13H20V51H48V46.949C48.332 46.973 48.662 47 49 47C49.338 47 49.668 46.973 50 46.949V53ZM49 45C45.415 45 42.201 43.411 40 40.911V40.123C40 38.744 40.935 37.547 42.272 37.212L48 35.781V32.87L47.503 32.581C46.562 32.033 46 31.068 46 30V28.207C46 26.548 47.199 25.145 48.729 25.012C49.587 24.943 50.4 25.213 51.027 25.788C51.645 26.355 52 27.161 52 28V30C52 31.068 51.438 32.033 50.497 32.581L50 32.87V35.781L55.728 37.212C57.065 37.547 58 38.744 58 40.123V40.911C55.799 43.411 52.585 45 49 45Z" fill="#283DCE"/>
<path d="M38 5H40V7H38V5Z" fill="#283DCE"/>
<path d="M28 5H36V7H28V5Z" fill="#283DCE"/>
<path d="M30 57H38V59H30V57Z" fill="#283DCE"/>
<path d="M44 57H46V59H44V57Z" fill="#283DCE"/>
<path d="M22 57H24V59H22V57Z" fill="#283DCE"/>
<path d="M24 33H33V35H24V33Z" fill="#283DCE"/>
<path d="M24 37H33V39H24V37Z" fill="#283DCE"/>
<path d="M24 41H33V43H24V41Z" fill="#283DCE"/>
<path d="M24 45H33V47H24V45Z" fill="#283DCE"/>
<path d="M57 19C58.654 19 60 17.654 60 16C60 14.698 59.161 13.598 58 13.184V5H56V13.184C54.839 13.598 54 14.698 54 16C54 17.654 55.346 19 57 19ZM57 15C57.551 15 58 15.448 58 16C58 16.552 57.551 17 57 17C56.449 17 56 16.552 56 16C56 15.448 56.449 15 57 15Z" fill="#283DCE"/>
<path d="M56 1H58V3H56V1Z" fill="#283DCE"/>
<path d="M11 45C9.346 45 8 46.346 8 48C8 49.302 8.839 50.402 10 50.816V59H12V50.816C13.161 50.402 14 49.302 14 48C14 46.346 12.654 45 11 45ZM11 49C10.449 49 10 48.552 10 48C10 47.448 10.449 47 11 47C11.551 47 12 47.448 12 48C12 48.552 11.551 49 11 49Z" fill="#283DCE"/>
<path d="M10 61H12V63H10V61Z" fill="#283DCE"/>
</svg>
