<svg width="64" height="64" viewBox="0 0 64 64" fill="none" xmlns="http://www.w3.org/2000/svg">
<path d="M60.999 52.9992V19.9997C60.999 17.2429 58.7559 14.9998 55.9991 14.9998H50.631C50.3762 13.5838 49.9914 12.1907 49.4694 10.8348L47.7263 6.30314L46.7922 6.66202C46.2102 6.88613 45.6062 6.9999 44.9993 6.9999C42.2425 6.9999 39.9994 4.75677 39.9994 1.99998V1H23.9996V1.99998C23.9996 4.75677 21.7565 6.9999 18.9997 6.9999C18.3928 6.9999 17.7888 6.88613 17.2068 6.66299L16.2727 6.30411L14.5296 10.8358C14.0076 12.1917 13.6238 13.5848 13.368 15.0007H7.99989C5.2431 15.0007 2.99997 17.2439 2.99997 20.0007V53.0001H1V58C1 60.7568 3.24313 63 5.99992 63H57.9991C60.7559 63 62.999 60.7568 62.999 58V53.0001H60.999V52.9992ZM55.9991 16.9997C57.6529 16.9997 58.9991 18.3459 58.9991 19.9997V52.9992H56.9991V20.9997C56.9991 19.8967 56.1021 18.9997 54.9991 18.9997H50.9953C50.9933 18.3298 50.964 17.6628 50.904 16.9997H55.9991ZM44.9993 8.99987C45.5213 8.99987 46.0413 8.93981 46.5525 8.82311L47.6023 11.5531C48.529 13.9627 48.9992 16.4949 48.9992 19.0778C48.9992 26.6856 44.8684 33.7065 38.2186 37.4013L32.9995 40.2992V31.9995H41.9993V29.0166C41.9993 26.7955 40.5082 24.8185 38.3724 24.2086L34.9995 23.2457V22.9796C36.2455 22.0407 36.9994 20.5636 36.9994 19.0007V17.2087C36.9994 14.7219 35.2783 12.6067 32.9995 12.1258V2.99997H38.0702C38.5575 6.3881 41.4784 8.99987 44.9993 8.99987ZM30.5025 21.5807C29.5616 21.0329 28.9995 20.0676 28.9995 18.9997V16.9997C28.9995 16.1619 29.3535 15.3547 29.9737 14.7879C30.5996 14.2137 31.4204 13.9388 32.2715 14.012C33.8017 14.1448 34.9995 15.5476 34.9995 17.2077V18.9997C34.9995 20.0676 34.4374 21.0329 33.4965 21.5807L32.9995 21.8698V24.7535L37.8236 26.1314C39.1044 26.4986 39.9994 27.6846 39.9994 29.0166V29.9995H23.9996V29.0166C23.9996 27.6836 24.8946 26.4976 26.1754 26.1314L30.9995 24.7535V21.8698L30.5025 21.5807ZM16.3967 11.5531L17.4465 8.82311C17.9577 8.93981 18.4777 8.99987 18.9997 8.99987C22.5206 8.99987 25.4415 6.3881 25.9288 2.99997H30.9995V12.1277C30.1196 12.3089 29.2915 12.7 28.6216 13.3138C27.5904 14.2586 26.9996 15.6028 26.9996 16.9997V18.9997C26.9996 20.5627 27.7535 22.0407 28.9995 22.9786V23.2448L25.6266 24.2086C23.4908 24.8185 21.9997 26.7955 21.9997 29.0166V31.9995H30.9995V40.2992L25.7808 37.4003C19.1306 33.7065 14.9998 26.6856 14.9998 19.0778C14.9998 16.4949 15.47 13.9627 16.3967 11.5531ZM24.8106 39.1483L31.9995 43.1434L39.1883 39.1483C45.9094 35.4155 50.2722 28.5796 50.9094 20.9997H54.9991V52.9992H39.5853L39.2924 53.2921C38.1913 54.3932 36.7284 54.9991 35.1713 54.9991H28.8277C27.2706 54.9991 25.8067 54.3932 24.7066 53.2921L24.4137 52.9992H8.99987V20.9997H13.0896C13.7268 28.5796 18.0896 35.4155 24.8106 39.1483ZM4.99994 19.9997C4.99994 18.3459 6.34611 16.9997 7.99989 16.9997H13.095C13.035 17.6628 13.0057 18.3298 13.0037 18.9997H8.99987C7.89686 18.9997 6.9999 19.8967 6.9999 20.9997V52.9992H4.99994V19.9997ZM60.999 57.9991C60.999 59.6529 59.6529 60.999 57.9991 60.999H5.99992C4.34614 60.999 2.99997 59.6529 2.99997 57.9991V54.9991H23.6017C25.0396 56.2921 26.8785 56.9991 28.8287 56.9991H35.1723C37.1215 56.9991 38.9613 56.2921 40.3993 54.9991H60.999V57.9991Z" fill="#5569ED"/>
<path d="M7 56.9993H9V58.9993H7V56.9993Z" fill="#5569ED"/>
<path d="M11 56.9993H13V58.9993H11V56.9993Z" fill="#5569ED"/>
<path d="M15 56.9993H17V58.9993H15V56.9993Z" fill="#5569ED"/>
<path d="M49 56.9993H56.9999V58.9992H49V56.9993Z" fill="#5569ED"/>
<path d="M11 48.999H24.9998V50.999H11V48.999Z" fill="#5569ED"/>
<path d="M11 44.9993H24.9998V46.9992H11V44.9993Z" fill="#5569ED"/>
<path d="M11 40.9993H24.9998V42.9992H11V40.9993Z" fill="#5569ED"/>
<path d="M39 48.999H52.9998V50.999H39V48.999Z" fill="#5569ED"/>
<path d="M39 44.9993H52.9998V46.9992H39V44.9993Z" fill="#5569ED"/>
<path d="M39 40.9993H52.9998V42.9992H39V40.9993Z" fill="#5569ED"/>
</svg>
