<svg width="64" height="64" viewBox="0 0 64 64" fill="none" xmlns="http://www.w3.org/2000/svg">
<path d="M35.0042 45.0813H23.9844V46.9693H35.0042V45.0813Z" fill="#5569ED"/>
<path d="M43.0192 45.0813H41.0156V46.9693H43.0192V45.0813Z" fill="#5569ED"/>
<path d="M59.9942 21.9819H58.1061V11.9061H55.043V10.0181H59.9942V21.9819Z" fill="#5569ED"/>
<path d="M59.9935 27.9927H58.1055V29.9963H59.9935V27.9927Z" fill="#5569ED"/>
<path d="M16.9723 36.0649H14.9688V37.953H16.9723V36.0649Z" fill="#5569ED"/>
<path d="M5.89585 15.971H4.00781V10.0181H10.9627V11.9061H5.89585V15.971Z" fill="#5569ED"/>
<path d="M48.0286 13.0234H29.9961V14.9115H48.0286V13.0234Z" fill="#5569ED"/>
<path d="M48.0298 21.0378H38.0117V22.9259H48.0298V21.0378Z" fill="#5569ED"/>
<path d="M44.0231 5.00903H42.0195V6.89707H44.0231V5.00903Z" fill="#5569ED"/>
<path d="M64 51.9782V6.01088H52.98V0H39.0126V1.88804H51.092V28.0505H41.627L36.9512 32.7262V28.0505H26.9332V1.88804H36.0072V0H25.0452V6.01088H0V51.9782H21.7747L20.243 58.1047H16.2358L14.762 64H49.2378L47.764 58.1047H43.7569L42.2252 51.9782H64ZM1.88804 50.0902V41.9602H43.0198V40.0722H25.9314V38.0108C25.9314 33.8634 23.3827 30.3015 19.7699 28.8051C21.6684 27.562 22.926 25.4176 22.926 22.9838C22.926 19.1488 19.8061 16.0289 15.9711 16.0289C12.1362 16.0289 9.01625 19.1488 9.01625 22.9838C9.01625 25.4176 10.2738 27.562 12.1724 28.8051C8.5596 30.3015 6.01088 33.8634 6.01088 38.0108V40.0722H1.88804V7.89891H25.0452V29.9387H35.0632V37.2844L42.4091 29.9387H52.98V7.89891H62.112V40.0722H46.0253V41.9602H62.112V50.0902H1.88804ZM10.9043 22.9838C10.9043 20.19 13.1774 17.917 15.9711 17.917C18.7649 17.917 21.038 20.19 21.038 22.9838C21.038 25.7776 18.7649 28.0507 15.9711 28.0507C13.1774 28.0507 10.9043 25.7776 10.9043 22.9838ZM24.0434 40.0722H7.89891V38.0108C7.89891 33.5598 11.5202 29.9386 15.9711 29.9386C20.4221 29.9386 24.0434 33.5598 24.0434 38.0108V40.0722ZM46.2901 59.9927L46.8199 62.112H17.1802L17.71 59.9927H29.9965V58.1047H22.1893L23.7208 51.9782H40.2792L41.8107 58.1047H33.0017V59.9927H46.2901Z" fill="#5569ED"/>
<path d="M39.0114 45.0813H37.0078V46.9693H39.0114V45.0813Z" fill="#5569ED"/>
<path d="M59.9935 23.9856H58.1055V25.9892H59.9935V23.9856Z" fill="#5569ED"/>
<path d="M59.9935 32H58.1055V34.0036H59.9935V32Z" fill="#5569ED"/>
<path d="M16.9723 32.0576H14.9688V33.9456H16.9723V32.0576Z" fill="#5569ED"/>
<path d="M48.0286 9.01636H29.9961V10.9044H48.0286V9.01636Z" fill="#5569ED"/>
<path d="M48.0286 17.0308H29.9961V18.9188H48.0286V17.0308Z" fill="#5569ED"/>
<path d="M48.027 5.00903H46.0234V6.89707H48.027V5.00903Z" fill="#5569ED"/>
<path d="M36.0075 21.0378H34.0039V22.9259H36.0075V21.0378Z" fill="#5569ED"/>
</svg>
